<?xml version="1.0" encoding="utf-8"?>
<!-- Generator: Adobe Illustrator 23.0.3, SVG Export Plug-In . SVG Version: 6.00 Build 0)  -->
<svg version="1.1" id="Layer_1" xmlns="http://www.w3.org/2000/svg" xmlns:xlink="http://www.w3.org/1999/xlink" x="0px" y="0px"
	 viewBox="0 0 512.2 115.1" style="enable-background:new 0 0 512.2 115.1;" xml:space="preserve">
<style type="text/css">
	.st0{fill:#FF6900;}
	.st1{fill:#FFFFFF;}
</style>
<g>
	<g>
		<path class="st0" d="M53.9,22.4c20.4,0,36,14,36,34.8c0,20.9-15.7,35.2-36,35.2H31c-4.6,0-8.4-3.1-8.4-8.4V31.1
			c0-5.3,3.8-8.7,8.4-8.7H53.9z"/>
		<path d="M33.5,92.4c5.8-3.2,8.7-6.2,10.8-9c3.9,1.7,7.7,2.5,11.1,2.5c6.4,0,11.8-2.9,14.6-8.2c2.9-1.7,4.8-5.3,5-7.9
			c1.8-2.3,2.1-5.2,1.6-7.1c-0.1-0.5-0.5-0.5-1.2-0.1c-5.7,3.4-11.3,5.1-16.6,5.1c-3.2,0-6.5-0.5-10-1.5c-0.3-3.8-1-6.9-1.3-8.8
			C47,54.9,47.6,53,50.4,53c2,0,5.8,0.5,8.8,1.9c3,1.4,4.7,4,6,4c0.5,0,1-0.3,1-1.4c0-2.2-0.8-5.6-1.7-6.9c2.8-0.2,5-0.1,6.2,0
			c2.6,0.5,2.7,1.8,3.2,2.6c0.5,0.8,1.4,1.2,2.4,1.2c1.9,0,3.1-1,3.1-4.6c0-7.9-5-11.7-10.2-11.7c-4.3,0-5.9,0.9-10,0.9
			c-2.9,0-5.3-5.9-8.6-6.6c-1.4-3.2-4.7-3.6-6.7-2c-1.8-1.1-4.7-0.5-4.8,1.5c-2.1-0.6-4.8,0.5-3.6,3.2c-5.1,0.1-6.1,4.7-2.6,5.2
			c-4.5,2.5-2.4,6.9,1.3,6c0.3,3.1,1.5,8.1,1.5,11.6c0,4.8-2.2,5.9-5.2,5.9c-2.4,0-5.8-0.9-8.2-1.5v3.4c2.4,0.6,5.9,1.3,8.6,1.3
			c4.7,0,7.3-2.8,7.3-8c0-6.4-2.1-12.3-1.4-16l-0.2-0.2c-2.3,2.4-3.9,1.8-4,1c-0.3-1.6,2.4-3.5,4-4.2c0-0.1,0.1-0.2,0.1-0.3
			c-1.5,0.2-3.2,0-3.3-1c-0.1-1.2,2.4-2.4,5.7-2.1c0.1-0.1,0.1-0.1,0.2-0.2c-0.2-0.1-0.4-0.2-0.7-0.3c-0.8-0.4-1.1-1.2-0.8-1.7
			c0.3-0.6,1.2-0.8,2-0.8c1.2,0,2.2,0.3,2.9,0.6c0.1,0,0.2-0.1,0.2-0.1c-0.3-0.2-0.5-0.4-0.6-0.7c-0.2-0.3-0.3-0.8,0.1-1.1
			c0.5-0.4,1.6-0.5,2.7,0.5c0.2,0.2,0.4,0.4,0.6,0.6c0.1,0,0.2,0,0.4-0.1c-0.2-0.3-0.3-0.5-0.4-0.8c-0.1-0.4,0.1-0.7,0.5-0.9
			c0.5-0.1,1,0.1,1.3,0.5c0.3,0.5,0.5,1.1,0.6,1.5C46.1,33.6,40,35,40,42.4c0,7.2,6,14.8,6,26c0,4.1-0.9,8.2-4.6,12.9
			c-2.9,3.7-7.4,7.2-14.4,10.1c1.2,0.6,2.6,0.9,4.1,0.9H33.5z M61.8,46.9c0.7-2.1,1.3-3.7,2.5-4.9c1.2-1.3,2.5-1.7,5.5-1.7
			c4.1,0,7.5,4.1,7.5,9.9c0,0.9-1.1,0.8-1.5,0.1c-1.4-2.4-3.3-2.8-6.2-3c-2.2-0.1-4.8,0.1-7.2,0.2C61.8,47.4,61.7,47.1,61.8,46.9z
			 M48.8,70c3.2,0.9,7.7,1.4,11.4,1.1c6.5-0.5,11.4-2.9,14.1-4.6c-1.6,4.2-7.8,6.7-13.8,7.5c0,0.3-0.1,0.6-0.1,0.9
			c4.5-0.2,8.8-1.7,10.7-3c-1.1,4.1-6.6,5.7-11.6,6c-0.1,0.3-0.3,0.6-0.4,0.9c2.9,0.1,5.7-0.5,7.3-1c-1.5,2.8-6.6,5.1-11.9,5.1
			c-2.6,0-5.8-0.5-8.6-1.8C47.9,77.2,48.6,73.5,48.8,70z"/>
		<path d="M22.5,76c2.5-0.5,4.9-0.9,4.9-0.9l0.3-1.3c-1.1-0.1-3.3,0-5.2,0V76z"/>
		<path class="st1" d="M49,36.4c0.9-0.3,2.1,0.6,2.8,1.9c0.7,1.3,0.5,2.6-0.4,2.9c-0.9,0.3-2.1-0.5-2.7-1.9
			c-0.1-0.2-0.2-0.4-0.2-0.5l0.2,0c0.3,0.3,0.6,0.3,0.8,0.2c0.3-0.2,0.3-0.7,0-1.2c-0.2-0.4-0.6-0.8-1-0.7L48.4,37
			C48.6,36.7,48.8,36.5,49,36.4 M55.1,49.8c-3.8-0.8-8.1-2-10.3-5.3c0-0.1-0.1-0.1-0.2-0.1c-0.1,0-0.1,0.1-0.1,0.2
			c0,0.2,0,0.4,0.1,0.6l-0.3,0.1c-0.6-0.8-0.7-1.8-0.1-2.6c0.8-1,2.6-0.9,3.6-0.3l-0.1,0.3c-0.5-0.1-1.1-0.1-1.5,0.2
			c-0.3,0.2-0.4,0.5-0.2,0.9c1.9,3.5,7.3,4.2,13.7,3.7c0.7-0.1,0.8-0.4,0.9-0.7c0.6-2.2,1.6-4.2,3.1-5.7c-1.2,0.2-2.3,0.2-3.2,0.3
			c-3.3,0.2-5.2-0.2-5.8-0.7l0.1-0.3c0.4,0.1,0.7,0.1,0.8,0c0.1-0.1,0-0.2-0.1-0.4c-0.6-0.6-3.5-3.5-3.5-3.5
			c-0.3-2.5-3.9-2.5-5.3-0.1L46,36.3c0.1-0.5,0.4-1,0.6-1.3c-3,0.7-4.7,3.4-5,6C40.3,52.1,57.2,49.5,62,54c0.1,0.1,0.3,0.4,0.5,0.2
			C62.7,53.6,60.5,51,55.1,49.8"/>
		<path class="st1" d="M74.3,66.5c-2.7,1.8-7.6,4.2-14.1,4.6c-3.7,0.3-8.1-0.2-11.4-1.1c0,1.1-0.2,2.2-0.3,3.3
			c1.8,0.5,5,1.1,9.7,1.2c-0.2,1.3-1.5,5.5-4.7,8.2c5.9,0.2,11.3-2.1,12.9-5.1c-1.7,0.5-4.4,1.1-7.3,1c0.2-0.3,0.3-0.6,0.4-0.9
			c5-0.2,10.5-1.9,11.6-6c-1.9,1.3-6.2,2.8-10.7,3c0.1-0.3,0.1-0.6,0.1-0.9C66.4,73.2,72.6,70.6,74.3,66.5z"/>
	</g>
	<g>
		<g>
			<g>
				<g>
					<path d="M489.2,69.1l-11.4-25c-1.3-2.7-3.1-3.9-5.7-3.9h-0.4c-2.7,0-4.5,1.2-5.8,3.9l-11.4,25c-1.1,2.5-0.3,4.7,2,5.6
						c2.1,0.8,4,0.3,5.2-2.1l2.6-5.5c2.3,0.8,5.2,1.2,7.8,1.2c2.8,0,5.5-0.4,7.5-1.2l2.5,5.5c1.1,2.4,3.3,2.8,5.2,2.1
						C489.4,73.7,490.3,71.5,489.2,69.1z M471.9,60.8c-1.7,0-3.6-0.2-5-0.7l4.9-10.9l4.9,10.9C475.2,60.5,473.6,60.8,471.9,60.8z"/>
					<path d="M448,66.8h-2.2V43.9c0-2.6-2-4.1-4.3-4.1c-2.3,0-4.1,1.5-4.1,4.1v22.9h-14.6V43.9c0-2.6-1.9-4.1-4.3-4.1
						s-4.3,1.5-4.3,4.1v26.9c0,2.3,1.5,4.1,4.1,4.1h25.4v3.7c0,2.6,1.9,4.1,4.1,4.1c2.4,0,4.1-1.5,4.1-4.1v-7.7
						C452.1,68.2,450.5,66.8,448,66.8"/>
					<path d="M405.7,66.8h-2.2V43.9c0-2.6-2-4.1-4.3-4.1s-4.1,1.5-4.1,4.1v22.9h-14.6V43.9c0-2.6-1.9-4.1-4.3-4.1s-4.3,1.5-4.3,4.1
						v26.9c0,2.3,1.5,4.1,4.1,4.1h25.4v3.7c0,2.6,1.9,4.1,4.1,4.1c2.4,0,4.1-1.5,4.1-4.1v-7.7C409.8,68.2,408.2,66.8,405.7,66.8"/>
					<path d="M358.7,40.1h-0.3c-2.5,0-4.1,1.2-5.9,3.7l-13.7,19.5V43.9c0-2.6-1.7-4.1-4-4.1c-2.4,0-4.1,1.5-4.1,4.1v26.3
						c0,2.8,1.9,4.7,4.7,4.7h0.4c2.6,0,4.4-1.3,6-3.7l13.7-19.5v19.5c0,2.6,1.7,4.1,4,4.1c2.3,0,4-1.5,4-4.1V44.7
						C363.5,41.9,361.8,40.1,358.7,40.1"/>
					<path d="M317.7,40.1h-23.5c-2.7,0-4.1,1.9-4.1,4.1v26.9c0,2.6,2,4.1,4.3,4.1c2.3,0,4.1-1.5,4.1-4.1V48.2h15v22.9
						c0,2.6,1.9,4.1,4.3,4.1c2.3,0,4.3-1.5,4.3-4.3V44.1C322,41.9,320.4,40.1,317.7,40.1"/>
				</g>
				<g>
					<path d="M256.8,39.8c-10.1,0-17.9,7.6-17.9,17.8c0,10.2,7.7,17.8,17.9,17.8c10,0,17.9-7.7,17.9-17.9
						C274.5,47.2,266.8,39.8,256.8,39.8z M256.8,67.3c-5.6,0-9.5-4.1-9.5-9.8c0-5.6,4-9.7,9.5-9.7c5.6,0,9.5,4.1,9.5,9.7
						C266.2,63.2,262.4,67.3,256.8,67.3z"/>
					<path d="M233,66.8h-2.2V44.2c0-2.3-1.5-4.1-4.1-4.1h-19.3c-2.3,0-3.8,1.5-3.8,4.1v5.5c0,3.9-0.1,7-0.8,10.2
						c-0.7,3.2-1.5,5.2-2.7,6.9h-1c-2.7,0-4,1.7-4,4.1v7.7c0,2.6,1.9,4.1,4.1,4.1c2.4,0,4.1-1.5,4.1-4.1v-3.7h25.4v3.7
						c0,2.6,1.9,4.1,4.1,4.1c2.4,0,4.1-1.5,4.1-4.1v-7.7C237.1,68.5,235.8,66.8,233,66.8z M222.4,66.8h-13.7
						c0.9-1.9,1.5-3.5,2.1-5.9c0.5-2.6,0.8-5.2,0.9-8.6l0.1-4h10.7V66.8z"/>
					<path d="M176.4,39.8c-10.1,0-17.9,7.6-17.9,17.8c0,10.2,7.7,17.8,17.9,17.8c10,0,17.9-7.7,17.9-17.9
						C194.3,47.2,186.6,39.8,176.4,39.8z M176.4,67.3c-5.6,0-9.5-4.1-9.5-9.8c0-5.6,4-9.7,9.5-9.7c5.6,0,9.5,4.1,9.5,9.7
						C185.9,63.2,182.2,67.3,176.4,67.3z"/>
					<path d="M152.4,66.8h-2.2V44.2c0-2.3-1.5-4.1-4.1-4.1h-19.3c-2.3,0-3.8,1.5-3.8,4.1v5.5c0,3.9,0,7-0.8,10.2
						c-0.7,3.2-1.5,5.2-2.7,6.9h-0.9c-2.7,0-4,1.7-4,4.1v7.7c0,2.6,1.9,4.1,4.1,4.1c2.4,0,4.1-1.5,4.1-4.1v-3.7h25.4v3.7
						c0,2.6,1.9,4.1,4.1,4.1c2.4,0,4.1-1.5,4.1-4.1v-7.7C156.6,68.5,155.3,66.8,152.4,66.8z M141.9,66.8h-13.7
						c0.9-1.9,1.5-3.5,2.1-5.9c0.5-2.6,0.8-5.2,0.9-8.6l0.1-4h10.7L141.9,66.8z"/>
				</g>
			</g>
		</g>
	</g>
</g>
</svg>
