<?xml version="1.0" encoding="utf-8"?>
<!-- Generator: Adobe Illustrator 23.0.3, SVG Export Plug-In . SVG Version: 6.00 Build 0)  -->
<svg version="1.1" id="Layer_1" xmlns="http://www.w3.org/2000/svg" xmlns:xlink="http://www.w3.org/1999/xlink" x="0px" y="0px"
	 viewBox="0 0 128 128" style="enable-background:new 0 0 128 128;" xml:space="preserve">
<style type="text/css">
	.st0{fill:#FF6900;}
	.st1{fill:#FFFFFF;}
</style>
<g>
	<path class="st0" d="M64,0L64,0C28.7,0,0,28.7,0,64v0c0,35.3,28.7,64,64,64h0c35.3,0,64-28.7,64-64v0C128,28.7,99.3,0,64,0z"/>
	<path class="st1" d="M69.9,52.6c-6.5-1.4-13.6-3.3-17.4-8.9c-0.1-0.1-0.2-0.2-0.3-0.1c-0.1,0-0.2,0.1-0.2,0.3c0,0.3,0,0.6,0.1,1
		l-0.5,0.2c-1-1.4-1.2-3.1-0.2-4.3c1.4-1.8,4.3-1.6,6-0.5l-0.2,0.5c-0.9-0.2-1.8-0.2-2.5,0.3c-0.6,0.4-0.7,0.9-0.3,1.6
		c3.1,5.8,12.3,7.1,23.2,6.3c1.1-0.1,1.4-0.6,1.5-1.1c0.9-3.8,2.7-7.1,5.2-9.7c-2,0.3-3.8,0.3-5.4,0.4C73.2,38.7,70,38,69,37.2
		l0.2-0.5c0.6,0.2,1.2,0.3,1.3,0.1c0.2-0.2,0-0.4-0.2-0.6c-1.1-1-5.9-5.9-5.8-5.9c-0.5-4.2-6.6-4.3-9-0.2l-0.8-0.2
		c0.2-0.9,0.6-1.6,0.9-2.2c-5,1.1-7.9,5.7-8.4,10c-2.2,18.8,26.3,14.5,34.4,22c0.2,0.1,0.5,0.7,0.8,0.3C82.7,59,79.1,54.7,69.9,52.6
		z M75.1,94.4c-7.9-0.2-13.3-1.3-16.4-2c0,0,0,0,0,0c0.3-1.9,0.5-3.8,0.6-5.6c5.4,1.5,12.9,2.3,19.2,1.9c10.9-0.8,19.2-4.9,23.8-7.8
		c0,0,0,0,0,0c-2.8,7-13.2,11.4-23.3,12.6c-0.1,0.5-0.1,1-0.2,1.5c0,0,0,0,0,0c7.6-0.4,14.8-2.9,18-5.1c0,0,0,0,0,0
		c-1.9,6.9-11.1,9.7-19.6,10.1c-0.2,0.5-0.5,1.1-0.7,1.5c0,0,0,0,0,0c4.9,0.1,9.6-0.8,12.4-1.7c0,0,0,0,0,0
		c-0.3,0.6-0.7,1.2-1.2,1.8c-2.4,2.8-6.8,5-12,6.1c-2.7,0.5-5.5,0.8-8.5,0.7C72.6,103.6,74.7,96.5,75.1,94.4z"/>
	<path d="M93.9,33.1c-7.2,0-10,1.6-16.9,1.6c-4.9,0-8.9-9.9-14.4-11.2c-2.4-5.4-7.9-6.1-11.3-3.3c-3.1-1.9-7.9-0.9-8.1,2.6
		c-3.5-1.1-8.1,0.8-6.1,5.4c-8.6,0.2-10.2,7.9-4.4,8.7c-7.5,4.3-4.1,11.6,2.2,10.1c0.4,5.2,2.6,13.7,2.6,19.5c0,8.1-3.7,10-8.7,10
		c-5,0-17.2-2.7-28.6-8.5c0.1,2.3,0.4,4.6,0.8,6.8c9.7,4.2,21.6,7,28.6,7c7.9,0,12.3-4.7,12.3-13.5c0-10.9-3.5-20.8-2.3-27L39.2,41
		c-4,4.1-6.5,3-6.8,1.7c-0.6-2.7,4.1-5.9,6.7-7.1c0.1-0.2,0.1-0.4,0.2-0.5c-2.5,0.4-5.4,0.1-5.5-1.7c-0.1-2.1,4.1-4,9.6-3.5
		c0.1-0.1,0.2-0.2,0.3-0.3c-0.3-0.1-0.7-0.3-1.2-0.6c-1.4-0.7-1.8-2-1.3-2.8c0.5-1,2.1-1.4,3.3-1.3c2,0,3.7,0.5,4.9,1
		c0.1-0.1,0.3-0.1,0.4-0.2c-0.5-0.4-0.9-0.7-1.1-1.1c-0.3-0.6-0.4-1.4,0.2-1.9c0.8-0.6,2.7-0.8,4.5,0.8c0.4,0.3,0.7,0.7,1,1
		c0.2,0,0.4-0.1,0.6-0.1c-0.3-0.5-0.5-0.9-0.6-1.4c-0.1-0.6,0.1-1.2,0.8-1.5c0.8-0.2,1.7,0.1,2.2,0.9c0.5,0.8,0.9,1.8,1.1,2.5
		c-3.9,0.5-14.3,2.8-14.3,15.3c0,12.2,10.1,25,10.1,43.9c0,6.9-1.5,13.8-7.8,21.8c-3.5,4.5-8.6,8.9-15.7,12.9
		c2.1,1.2,4.2,2.4,6.4,3.4c7.3-4.6,11.3-8.8,14.2-12.8c6.6,2.9,13,4.2,18.7,4.2c10.7,0,19.9-4.9,24.7-13.8c4.9-2.9,8.2-9,8.4-13.3
		c3.1-3.9,3.6-8.7,2.7-12c-0.2-0.8-0.9-0.8-2-0.1c-9.7,5.8-19.1,8.6-28,8.6c-5.4,0-11-0.9-16.9-2.6C58.8,74,57.5,68.7,57,65.5
		c-0.7-4.3,0.3-7.4,5-7.4c3.4,0,9.8,0.9,14.8,3.2c5,2.3,8,6.8,10.1,6.8c0.8,0,1.7-0.5,1.7-2.3c0-3.6-1.3-9.5-2.9-11.6
		c4.7-0.3,8.4-0.2,10.5,0c4.4,0.8,4.6,3,5.4,4.4c0.9,1.4,2.3,2.1,4.1,2.1c3.3,0,5.3-1.7,5.3-7.7C111.1,39.6,102.7,33.1,93.9,33.1z
		 M58.7,92.3C58.7,92.3,58.7,92.3,58.7,92.3c0.3-1.9,0.5-3.8,0.6-5.6c5.4,1.5,12.9,2.3,19.2,1.9c10.9-0.8,19.2-4.9,23.8-7.8
		c0,0,0,0,0,0c0,0,0,0,0,0c-2.8,7-13.2,11.4-23.3,12.6c-0.1,0.5-0.1,1-0.2,1.5c7.6-0.4,14.8-2.9,18-5.1c0,0,0,0,0,0c0,0,0,0,0,0
		c-1.9,6.9-11.1,9.7-19.6,10.1c-0.2,0.5-0.5,1-0.7,1.5c4.9,0.1,9.6-0.8,12.4-1.7c0,0,0,0,0,0c0,0,0,0,0,0c-0.3,0.6-0.7,1.2-1.2,1.8
		c-2.4,2.8-6.8,5-12,6.1c-2.2,0.5-4.5,0.7-6.8,0.7c-4.3,0-9.8-0.8-14.5-3.1C56.7,100.9,58,96.5,58.7,92.3z M82.4,60.1
		c-0.3,0.3-0.7-0.2-0.8-0.3c-8.2-7.5-36.7-3.2-34.4-22c0.5-4.4,3.4-8.9,8.4-10c-0.3,0.5-0.7,1.3-0.9,2.2l0.8,0.2
		c2.4-4.1,8.5-3.9,9,0.2c0,0,4.8,4.9,5.8,5.9c0.3,0.2,0.4,0.4,0.2,0.6c-0.1,0.2-0.7,0.1-1.3-0.1L69,37.2c1,0.8,4.2,1.5,9.8,1.2
		c1.6-0.1,3.5-0.2,5.4-0.4c-2.5,2.6-4.3,5.9-5.2,9.7c-0.1,0.5-0.4,1-1.5,1.1c-10.9,0.8-20-0.4-23.2-6.3C54,41.8,54,41.3,54.6,41
		c0.7-0.4,1.6-0.4,2.5-0.3l0.2-0.5c-1.7-1.1-4.6-1.3-6,0.5c-1,1.2-0.8,2.9,0.2,4.3l0.5-0.2c-0.1-0.3-0.1-0.7-0.1-1
		c0-0.1,0.1-0.2,0.2-0.3c0.1,0,0.2,0,0.3,0.1c3.8,5.6,10.9,7.5,17.4,8.9C79.1,54.7,82.7,59,82.4,60.1z M104.7,53.5
		c-2.3-4.1-5.5-4.7-10.5-5.1c-3.7-0.2-8.1,0.1-12.2,0.3c-0.8,0-1-0.5-0.9-0.8c1.2-3.6,2.2-6.2,4.2-8.3c2-2.2,4.3-2.8,9.3-2.8
		c6.9,0,12.6,6.9,12.6,16.6C107.2,54.8,105.3,54.8,104.7,53.5z M58.8,31.1L58.7,31c0.2-0.4,0.6-0.8,1-0.9c1.5-0.5,3.5,0.9,4.6,3.2
		c1.1,2.2,0.8,4.5-0.6,4.9c-1.4,0.5-3.5-0.9-4.6-3.2c-0.2-0.3-0.3-0.6-0.4-0.9L59,34c0.5,0.4,1,0.6,1.4,0.3c0.5-0.3,0.5-1.2,0-2
		C60.1,31.8,59.4,31.1,58.8,31.1z M23.7,93l-0.5,2.3c0,0-6.9,1-13.6,2.4c-0.9-1.4-1.7-2.8-2.4-4.3C11.8,93.1,18.1,92.9,23.7,93z"/>
</g>
</svg>
